# xmcd
#
# Track frame offsets: 
#        150
#        35073
#        84458
#        108370
#        151378
#        162443
#        206870
#
# Disc length: 2914 seconds
#
# Revision: 1
# Processed by: cddbd v1.5.2PL0 Copyright (c) Steve Scherf et al.
# Submitted via: ExactAudioCopy v0.99pb3
#
DISCID=590b6007
DTITLE=Tom Arthurs - Centripede
DYEAR=2003
DGENRE=Jazz
TTITLE0=Issues
TTITLE1=Buddha beads
TTITLE2=Pollock
TTITLE3=Sick mind
TTITLE4=Bitbob
TTITLE5=Perception extended
TTITLE6=Stroll
EXTD=
EXTT0=
EXTT1=
EXTT2=
EXTT3=
EXTT4=
EXTT5=
EXTT6=
PLAYORDER=
